<svg version="1.1" id="Layer_1" xmlns="http://www.w3.org/2000/svg" x="0" y="0" viewBox="0 0 205 204.99" xml:space="preserve"><style>.st0{fill:#ff6600}</style><path class="st0" d="M102.5 35.16a2.981 2.981 0 010-5.96 2.981 2.981 0 010 5.96zm0-4.96c-1.09 0-1.97.88-1.97 1.97 0 1.09.88 1.97 1.97 1.97s1.97-.88 1.97-1.97c0-1.08-.88-1.97-1.97-1.97zm0-2.06c-.28 0-.51-.23-.51-.51v-2.68c0-.28.23-.51.51-.51s.51.23.51.51v2.68c0 .28-.23.51-.51.51zm-3.21 1.33c-.13 0-.26-.05-.36-.15l-1.9-1.9c-.2-.2-.2-.52 0-.72s.52-.2.72 0l1.9 1.9c.2.2.2.52 0 .72-.1.1-.23.15-.36.15zm-1.33 3.21h-2.68c-.28 0-.51-.23-.51-.51s.23-.51.51-.51h2.68c.28 0 .51.23.51.51-.01.29-.23.51-.51.51zm-.57 5.11c-.13 0-.26-.05-.36-.15-.2-.2-.2-.52 0-.72l1.9-1.9c.2-.2.52-.2.72 0 .2.2.2.52 0 .72l-1.9 1.9c-.1.1-.23.15-.36.15zm5.11 2.12c-.28 0-.51-.23-.51-.51v-2.68c0-.28.23-.51.51-.51s.51.23.51.51v2.68c0 .28-.23.51-.51.51zm5.11-2.12c-.13 0-.26-.05-.36-.15l-1.9-1.9c-.2-.2-.2-.52 0-.72.2-.2.52-.2.72 0l1.9 1.9c.2.2.2.52 0 .72-.1.1-.23.15-.36.15zm2.12-5.11h-2.68c-.28 0-.51-.23-.51-.51s.23-.51.51-.51h2.68c.28 0 .51.23.51.51-.01.29-.23.51-.51.51zm-4.02-3.21c-.13 0-.26-.05-.36-.15-.2-.2-.2-.52 0-.72l1.9-1.9c.2-.2.52-.2.72 0 .2.2.2.52 0 .72l-1.9 1.9c-.1.1-.23.15-.36.15zm-2.7 127.27v-3.19c0-.28-.23-.51-.51-.51s-.51.23-.51.51v3.19h1.02zm2.93 13.51H103v-12.5h-1.01v12.5h-2.94c-.28 0-.51.23-.51.51s.23.51.51.51h6.88c.28 0 .51-.23.51-.51a.497.497 0 00-.5-.51zm-31-115.87h-3.19v1.01h3.19c.28 0 .51-.23.51-.51 0-.27-.23-.5-.51-.5zm-4.2 0H57.73c-.28 0-.51.23-.51.51v3.44c0 .28.23.51.51.51s.51-.23.51-.51v-2.94h12.5v-1.01zm62.51 0h-3.19c-.28 0-.51.23-.51.51s.23.51.51.51h3.19v-1.02zm14.02 0h-13.01v1.01h12.5v2.94c0 .28.23.51.51.51s.51-.23.51-.51v-3.44a.519.519 0 00-.51-.51z"/><path d="M31.74 78.33v24.18h-1.86V78.33h-6.51v-1.86h17.67v1.86h-9.3zm-8.37 2.79v-1.86h5.58v1.86h-5.58zm9.3 21.39V79.93l1.86 1.93v20.65h-1.86zm2.49-21.39l-1.82-1.86h7.7v1.86h-5.88zm26.53 19.05l-1.41-1.26c1.07-1.34 1.6-3.07 1.6-5.21v-8.37c0-2.23-.6-4.04-1.79-5.41-1.19-1.38-2.77-2.06-4.72-2.06-1.96 0-3.53.69-4.72 2.06-1.19 1.38-1.79 3.18-1.79 5.41v8.37c0 2.23.6 4.03 1.79 5.39 1.19 1.36 2.77 2.05 4.72 2.05 1.71 0 3.14-.53 4.28-1.6l1.3 1.3c-1.41 1.41-3.27 2.12-5.58 2.12-1.66 0-3.12-.38-4.39-1.15-1.26-.77-2.24-1.85-2.94-3.26-.7-1.4-1.04-3.02-1.04-4.85v-8.37c0-1.84.35-3.46 1.04-4.87.69-1.41 1.67-2.5 2.94-3.27 1.26-.77 2.73-1.15 4.39-1.15 1.66 0 3.12.38 4.39 1.15 1.26.77 2.24 1.86 2.94 3.27.69 1.41 1.04 3.04 1.04 4.87v8.37c0 2.55-.69 4.71-2.05 6.47zM51.65 85.33v8.37c0 1.39.34 2.51 1.02 3.37.68.86 1.58 1.28 2.7 1.28s2.01-.43 2.7-1.28c.68-.86 1.02-1.98 1.02-3.37v-8.37c0-1.39-.34-2.52-1.02-3.39-.68-.87-1.58-1.3-2.7-1.3-.99 0-1.8.35-2.42 1.04l-1.38-1.3c.45-.5 1-.88 1.66-1.15.66-.27 1.37-.41 2.14-.41 1.69 0 3.04.6 4.05 1.79 1.02 1.19 1.53 2.77 1.53 4.72v8.37c0 1.96-.51 3.53-1.53 4.71-1.02 1.18-2.37 1.77-4.05 1.77-1.69 0-3.04-.59-4.06-1.77-1.02-1.18-1.53-2.75-1.53-4.71v-8.37c0-1.74.37-3.16 1.12-4.28l1.38 1.38c-.42.84-.63 1.81-.63 2.9zm19.71 17.18V76.47h8.37c1.66 0 3.12.35 4.39 1.04a7.3 7.3 0 012.94 2.94c.69 1.26 1.04 2.73 1.04 4.39 0 2.21-.62 4.11-1.86 5.69l-1.41-1.41c.94-1.24 1.41-2.67 1.41-4.28 0-1.96-.6-3.53-1.79-4.72s-2.77-1.79-4.72-1.79h-6.51v10.23h6.51c1.12 0 2.01-.34 2.7-1.02.68-.68 1.02-1.58 1.02-2.7s-.34-2.01-1.02-2.7c-.68-.68-1.58-1.02-2.7-1.02h-3.05l-1.97-1.86h5.02c1.69 0 3.04.51 4.05 1.53 1.02 1.02 1.53 2.37 1.53 4.05 0 1.49-.42 2.73-1.25 3.74-.83 1-1.94 1.59-3.33 1.77l4.09 12.16h-2.01L78.8 90.42h-5.58v12.09h-1.86zm4.65-20.64v5.77h-1.86v-7.63l1.86 1.86zm-1.86 10.15l1.86 1.86v8.63h-1.86V92.02zm.63-.67h3.35l.67 1.86h-2.05l-1.97-1.86zm9.42-1.48l1.3 1.3c-.3.3-.71.61-1.23.93l3.46 10.42h-1.97L81.97 91.1c.86-.3 1.61-.71 2.23-1.23zm23.86 16.66c-1.38-1.04-2.35-2.47-2.92-4.28-.92.17-1.7.26-2.34.26-1.66 0-3.12-.38-4.39-1.15-1.26-.77-2.24-1.86-2.94-3.27-.69-1.41-1.04-3.04-1.04-4.87v-7.89c0-1.84.35-3.46 1.04-4.87.69-1.41 1.67-2.5 2.94-3.27 1.26-.77 2.73-1.15 4.39-1.15 1.66 0 3.12.38 4.39 1.15 1.26.77 2.24 1.86 2.94 3.27.69 1.41 1.04 3.04 1.04 4.87v7.89c0 2.21-.52 4.1-1.56 5.69l-1.97-.48c1.12-1.31 1.67-3.05 1.67-5.21v-7.89c0-2.23-.6-4.04-1.79-5.41-1.19-1.38-2.77-2.06-4.72-2.06-1.96 0-3.53.69-4.72 2.06-1.19 1.38-1.79 3.18-1.79 5.41v2.23h4.65c1.12 0 2.15.17 3.11.52.95.35 1.78.84 2.47 1.49v-4.24c0-1.39-.34-2.52-1.02-3.39-.68-.87-1.58-1.3-2.7-1.3-.99 0-1.8.35-2.42 1.04L99 80.38c.45-.5 1-.88 1.66-1.15.66-.27 1.37-.41 2.14-.41 1.69 0 3.04.6 4.05 1.79 1.02 1.19 1.53 2.77 1.53 4.72v7.89c0 1.61-.31 2.91-.93 3.91v-.3c0-2.23-.6-4.02-1.79-5.38-1.19-1.35-2.77-2.03-4.72-2.03h-4.65v3.79c0 2.23.6 4.03 1.79 5.39 1.19 1.36 2.77 2.05 4.72 2.05.77 0 1.41-.09 1.93-.26-.05-.69-.07-1.23-.07-1.6v-1.97c0-1.39-.34-2.5-1.02-3.35-.68-.84-1.58-1.26-2.7-1.26h-1.23l-1.93-1.86h3.16c1.69 0 3.04.59 4.05 1.77 1.02 1.18 1.53 2.75 1.53 4.71v1.97c0 2.23.6 4.03 1.79 5.39 1.19 1.36 2.77 2.05 4.72 2.05v1.86c-1.94-.01-3.59-.53-4.97-1.57zm-9.73-25.48l1.38 1.38c-.42.84-.63 1.81-.63 2.9v1.3h-1.86v-1.3c0-1.74.37-3.17 1.11-4.28zm5.4 16.74v1.82c-.17.07-.48.11-.93.11-1.66 0-3.01-.6-4.04-1.79-1.03-1.19-1.54-2.77-1.54-4.72v-2.12l1.86 1.82v.3c0 1.39.34 2.51 1.02 3.37.68.86 1.58 1.28 2.7 1.28.44 0 .75-.02.93-.07zm5.39 5.86c-1.02-1.1-1.58-2.56-1.67-4.37l1.93.56c.15 1.12.55 2 1.19 2.64.64.65 1.46.97 2.46.97v1.86c-1.59-.01-2.89-.56-3.91-1.66zm12.85-4.56c1.18 1.36 2.75 2.05 4.71 2.05.84 0 1.62-.14 2.34-.41.72-.27 1.34-.67 1.86-1.19l1.38 1.41c-.69.65-1.52 1.14-2.47 1.49-.96.35-1.99.52-3.11.52-1.66 0-3.12-.38-4.39-1.15-1.26-.77-2.25-1.85-2.94-3.26-.69-1.4-1.04-3.02-1.04-4.85V76.47h1.9V93.7c0 2.23.59 4.03 1.76 5.39zm2.03-2.03c.67.86 1.56 1.28 2.68 1.28s2.01-.43 2.7-1.28c.68-.86 1.02-1.98 1.02-3.37V76.47h1.86V93.7c0 1.96-.51 3.53-1.53 4.71-1.02 1.18-2.37 1.77-4.05 1.77-1.69 0-3.04-.59-4.05-1.77-1.02-1.18-1.53-2.75-1.53-4.71V76.47h1.9V93.7c0 1.39.33 2.51 1 3.36zm8.93 3.11l-1.41-1.26c1.12-1.31 1.67-3.05 1.67-5.21V76.47h1.86V93.7c0 2.7-.71 4.86-2.12 6.47zm16.18-23.7h1.93l-5.65 17.22h6.4l.67 1.86h-7.7l-2.34 6.96h-1.97l8.66-26.04zm-5.76 26.04l1.97-5.58 1.19 1.86-1.19 3.72h-1.97zm10.97-4.16h-6.99l-1.3-1.86h7.74l-2.72-8.3.97-2.86 5.73 17.19h-2.05l-1.38-4.17zm-2.31-15.92l-3.46 10.34h-1.97l5.51-16.29 8.56 26.04h-1.93l-6.71-20.09zm18.46 20.08V89.79l-7.51-13.32h2.12l6.25 11.09 6.32-11.09h2.16l-7.48 13.32v12.72h-1.86zm1.97-18.78l-1.12 1.93-5.13-9.19h2.16l4.09 7.26zm.82 18.78V89.98l7.66-13.5h2.12l-7.92 13.95v12.09h-1.86z" fill="#fff"/><path class="st0" d="M80.65 60.33c.65.65 1.51.97 2.59.97.91 0 1.67-.25 2.28-.76l.76.76c-.81.65-1.83.98-3.04.98-.91 0-1.71-.19-2.4-.56-.69-.37-1.23-.9-1.6-1.58-.37-.68-.56-1.47-.56-2.36h1c0 1.05.33 1.9.97 2.55zm-.77-6.03l5.34-5.26h-6.3v-1h8.77l-7.07 7.01-.74-.75zm-.96-4.77h5.1l-1.04 1h-4.06v-1zm4.32 5.07c.87 0 1.57.28 2.12.85s.82 1.32.82 2.25v.24c0 .85-.27 1.54-.82 2.06-.55.52-1.25.78-2.12.78-.93 0-1.68-.27-2.23-.82-.55-.55-.83-1.27-.83-2.18h1c0 .6.19 1.09.56 1.46.37.37.87.56 1.5.56.57 0 1.04-.17 1.4-.52.36-.35.54-.79.54-1.34v-.24c0-.65-.18-1.18-.55-1.57-.37-.39-.85-.59-1.45-.59h-.1c-.25 0-.5.05-.73.15-.23.1-.44.24-.61.41l-.76-.72 6.71-6.65v1.4l-4.45 4.47zm3.39 6.3l-.74-.72c.53-.64.8-1.39.8-2.24v-.24c0-.85-.22-1.6-.65-2.24-.43-.64-1-1.07-1.71-1.28l.76-.78c.77.31 1.4.85 1.88 1.63.48.78.72 1.67.72 2.67v.24c0 1.16-.36 2.15-1.06 2.96zm5.42-10.73c.37-.76.9-1.35 1.58-1.76.68-.41 1.47-.62 2.36-.62.89 0 1.68.18 2.36.54.68.36 1.21.87 1.58 1.53.37.66.56 1.42.56 2.27v.24c0 .55-.1 1.11-.3 1.68-.2.57-.48 1.07-.84 1.48l-.72-.64c.27-.32.48-.71.63-1.17.15-.46.23-.91.23-1.35v-.24c0-1-.32-1.81-.96-2.43-.64-.62-1.49-.93-2.54-.93s-1.9.37-2.54 1.11c-.64.74-.96 1.71-.96 2.91h-1c0-.98.19-1.86.56-2.62zm5.78 3.03c.11-.28.17-.55.17-.82v-.24c0-.55-.18-.99-.55-1.34-.37-.35-.85-.52-1.45-.52-.49 0-.89.15-1.2.46l-.76-.7c.51-.49 1.16-.74 1.96-.74.93.01 1.67.28 2.22.81.55.53.81 1.2.78 2.03v.24c0 .36-.08.75-.25 1.16-.17.41-.38.78-.65 1.1l-6.61 6.71V59.8l5.9-5.86c.18-.22.32-.46.44-.74zm2.67 7.84v1h-9.01l6.81-6.81.7.7-5.2 5.1h6.7zm-6.81-10.65l.74.74c-.29.39-.44.94-.44 1.66h-1c0-.98.24-1.78.7-2.4zm6.81 10.15h-5.56l.96-1h4.6v1zm4.56-10.37c.37-.76.9-1.35 1.58-1.76.68-.41 1.47-.62 2.36-.62.89 0 1.68.18 2.36.54.68.36 1.21.87 1.58 1.53.37.66.56 1.42.56 2.27v.24c0 .55-.1 1.11-.3 1.68-.2.57-.48 1.07-.84 1.48l-.72-.64c.27-.32.48-.71.63-1.17.15-.46.23-.91.23-1.35v-.24c0-1-.32-1.81-.96-2.43-.64-.62-1.49-.93-2.54-.93s-1.9.37-2.54 1.11c-.64.74-.96 1.71-.96 2.91h-1c0-.98.19-1.86.56-2.62zm5.78 3.03c.11-.28.17-.55.17-.82v-.24c0-.55-.18-.99-.55-1.34-.37-.35-.85-.52-1.45-.52-.49 0-.89.15-1.2.46l-.76-.7c.51-.49 1.16-.74 1.96-.74.93.01 1.67.28 2.22.81.55.53.81 1.2.78 2.03v.24c0 .36-.08.75-.25 1.16-.17.41-.38.78-.65 1.1l-6.61 6.71V59.8l5.9-5.86c.18-.22.32-.46.44-.74zm2.67 7.84v1h-9.01l6.81-6.81.7.7-5.2 5.1h6.7zm-6.81-10.65l.74.74c-.29.39-.44.94-.44 1.66h-1c0-.98.24-1.78.7-2.4zm6.81 10.15h-5.56l.96-1h4.6v1zm4.6-5.57c.53-.75 1.23-1.3 2.1-1.63-.17-.17-.33-.4-.46-.68s-.2-.57-.2-.88v-.24c0-.52.15-.99.46-1.4l.74.74c-.13.21-.2.43-.2.66v.24c0 .33.12.63.37.88s.54.38.89.38.64-.13.89-.38.37-.55.37-.88v-.24c0-.35-.12-.64-.37-.89a1.2 1.2 0 00-.89-.37c-.17 0-.41.07-.7.22l-.74-.7c.35-.33.83-.5 1.44-.5.63 0 1.16.22 1.59.65.43.43.65.96.65 1.59v.24c0 .61-.22 1.14-.65 1.59-.43.45-.96.67-1.59.67-.64 0-1.23.16-1.76.47-.53.31-.96.74-1.27 1.27-.31.53-.47 1.12-.47 1.76v.24c0 .64.16 1.23.47 1.77a3.466 3.466 0 003.03 1.75c.43 0 .83-.07 1.22-.22s.73-.36 1.02-.64l.7.7c-.37.36-.82.64-1.33.84-.51.2-1.05.3-1.61.3-.81 0-1.57-.2-2.26-.61-.69-.41-1.24-.95-1.64-1.64-.4-.69-.6-1.44-.6-2.25v-.24c0-.96.27-1.82.8-2.57zm.45-5.3c.34-.57.8-1.03 1.38-1.37.58-.34 1.2-.51 1.87-.51.67 0 1.29.17 1.86.5a3.8 3.8 0 011.37 1.36c.34.57.51 1.2.51 1.88v.24c0 .45-.08.89-.23 1.3-.15.41-.38.78-.67 1.1l-.68-.64c.4-.52.6-1.11.6-1.76v-.24c0-.49-.12-.95-.37-1.38-.25-.43-.58-.76-1-1.01-.42-.25-.88-.37-1.39-.37-.49 0-.95.13-1.37.38-.42.25-.76.59-1.01 1.01-.25.42-.38.88-.38 1.37v.24c0 .51.12.96.36 1.36-.16.07-.32.17-.48.3l-.32.26c-.37-.61-.56-1.25-.56-1.92v-.24c0-.66.17-1.28.51-1.86zm5.22 5.59c.05.05.1.09.14.12.28.29.5.62.66.99.16.37.24.76.24 1.17v.24c0 .55-.14 1.05-.41 1.51-.27.46-.64.82-1.1 1.09-.46.27-.96.4-1.49.4-.55 0-1.05-.13-1.51-.4-.46-.27-.82-.63-1.09-1.09-.27-.46-.4-.96-.4-1.51v-.24c0-.36.06-.71.18-1.04.12-.33.29-.62.52-.86l.7.7c-.27.37-.4.77-.4 1.2v.24c0 .56.2 1.04.59 1.43.39.39.86.59 1.41.59.55 0 1.02-.2 1.41-.59.39-.39.59-.87.59-1.43v-.24c0-.55-.2-1.02-.59-1.41-.39-.39-.86-.59-1.41-.59-.49 0-.91.15-1.26.44l-.7-.68c.57-.51 1.23-.76 1.96-.76.68 0 1.28-.22 1.8-.66l.7.72-.34.24-.42.24c.09.06.16.12.22.18zm1.31 3.76c.15-.4.23-.81.23-1.24v-.24c0-.44-.08-.86-.24-1.27-.16-.41-.38-.76-.66-1.07.27-.23.5-.47.7-.72.37.41.67.89.88 1.42.21.53.32 1.08.32 1.64v.24c0 .56-.1 1.1-.31 1.62s-.48.98-.83 1.38l-.72-.68c.26-.32.47-.68.63-1.08zm-67.86 79.35v-22.05h1.57v12.6h7.31l1.57 1.58H58.8v7.87h-1.57zm3.93-22.05v11.81h-1.57v-11.81h1.57zm-1.57 15.53l1.57 1.57v4.94h-1.57v-6.51zm9.45 6.52v-5.51H61.8l-1.67-1.57h8.91v-14.96h1.57v22.05h-1.57zm-.79-8.51l-1.57-1.51v-12.03h1.57v13.54zm-1.58 8.51v-4.72h1.57v4.72h-1.57zm23.47-1.99l-1.2-1.07c.9-1.13 1.35-2.6 1.35-4.41v-7.09c0-1.89-.5-3.42-1.51-4.58-1.01-1.17-2.34-1.75-4-1.75-1.66 0-2.99.58-4 1.75-1.01 1.17-1.51 2.69-1.51 4.58v7.09c0 1.89.5 3.41 1.51 4.57 1.01 1.15 2.34 1.73 4 1.73 1.45 0 2.66-.45 3.62-1.35l1.1 1.1c-1.2 1.2-2.77 1.8-4.72 1.8-1.41 0-2.65-.33-3.72-.98-1.07-.65-1.9-1.57-2.49-2.76-.59-1.19-.88-2.56-.88-4.11v-7.09c0-1.55.29-2.93.88-4.13.59-1.2 1.42-2.12 2.49-2.77 1.07-.65 2.31-.98 3.72-.98 1.41 0 2.65.33 3.72.98 1.07.65 1.9 1.58 2.49 2.77.59 1.2.88 2.57.88 4.13v7.09c0 2.17-.58 3.99-1.73 5.48zm-8.51-12.56v7.09c0 1.18.29 2.13.87 2.85.58.72 1.34 1.09 2.28 1.09.94 0 1.71-.36 2.28-1.09.58-.72.87-1.67.87-2.85v-7.09c0-1.18-.29-2.13-.87-2.87-.58-.73-1.34-1.1-2.28-1.1-.84 0-1.52.29-2.05.88l-1.17-1.1c.38-.42.84-.74 1.4-.98.56-.23 1.16-.35 1.81-.35 1.43 0 2.57.5 3.43 1.51.86 1.01 1.29 2.34 1.29 4v7.09c0 1.66-.43 2.99-1.29 3.98-.86 1-2.01 1.5-3.43 1.5-1.43 0-2.57-.5-3.43-1.5-.86-1-1.29-2.33-1.29-3.98v-7.09c0-1.47.32-2.68.94-3.62l1.17 1.17c-.35.71-.53 1.53-.53 2.46zM104 117.9v20.47h-1.57V117.9h-5.51v-1.57h14.96v1.57H104zm-7.09 2.36v-1.57h4.72v1.57h-4.72zm7.87 18.11v-19.12l1.57 1.64v17.48h-1.57zm2.11-18.11l-1.54-1.57h6.52v1.57h-4.98zm21.2 7.08h-8.66v7.09h10.24V136h-11.81v-19.68h11.81v1.57h-10.24v7.87h8.66v1.58zm-10.24 11.03v-1.58h11.81v1.58h-11.81zm3.94-17.58v4.19h-1.57v-5.73l1.57 1.54zm0 9.45v3.4h-1.57v-4.94l1.57 1.54zm.63-9.98l-1.67-1.57h8.91v1.57h-7.24zm0 9.45l-1.67-1.57h7.34v1.57h-5.67zm14.33 6.3v-19.68h1.57v18.11h9.45v1.57h-11.02zm0 2.36v-1.58h11.02v1.58h-11.02zm3.94-22.05v17.32h-1.57v-17.32h1.57zM29.87 47.43V30.37c0-.28.23-.51.51-.51h17.06v1.01h-16.2l2.85 2.85h13.35v.51h-13.2v13.2h-.51V34.08l-2.85-2.85v16.19h-1.01zm-16.28 67.44L1.47 102.75H5.5l8.09 8.09v-.72l-7.63-7.63 7.63-7.63v-.72l-8.09 8.09H1.47l12.12-12.12v-1.43L.15 102.14c-.2.2-.2.52 0 .72l13.45 13.45v-1.44zm33.85 56.39v-.51h-13.2v-13.2h-.51v13.35l-2.85 2.85v-16.19h-1.01v17.06c0 .28.23.51.51.51h17.06v-1.01h-16.2l2.85-2.85h13.35zm126.67-13.7v16.19l-2.85-2.85v-13.35h-.51v13.2h-13.2v.51h13.34l2.85 2.85h-16.19v1.01h17.06c.28 0 .51-.23.51-.51v-17.06h-1.01zm.51-127.69h-17.06v1.01h16.19l-2.85 2.85h-13.34v.51h13.2v13.2h.51V34.08l2.85-2.85v16.19h1.01V30.37c0-.28-.23-.5-.51-.5zM115.28 191l-12.52 12.52v-4.03l8.5-8.5h-.72l-8.03 8.03-8.04-8.02h-.72l8.5 8.5v4.03L89.72 191h-1.43l13.85 13.85a.508.508 0 00.72 0L116.71 191h-1.43zm89.57-88.86L191.4 88.69v1.43l12.12 12.12h-4.03l-8.09-8.09v.72l7.63 7.63-7.63 7.63v.72l8.09-8.09h4.03l-12.12 12.12v1.43l13.45-13.45c.2-.21.2-.53 0-.72zm-90.38-88.96h1.43L102.86.14a.526.526 0 00-.72 0L89.1 13.18h1.43l11.72-11.72v4.03l-7.69 7.69h.72l7.23-7.23 7.23 7.23h.72l-7.69-7.69V1.47l11.7 11.71z"/></svg>